<?xml version="1.0" encoding="UTF-8"?>
<!-- Simbolo AspenTech (sem wordmark e sem o (R)) extraido do SVG oficial do header de https://www.aspentech.com ; cor #0078C9 = cor do logo oficial (Wikimedia Commons File:Aspen_Technology_logo.svg) -->
<svg xmlns="http://www.w3.org/2000/svg" width="256" height="256" viewBox="12.42 8.19 67.95 67.95"><g fill="#0078C9"><path d="M41.6,24.1l-1.3,1.5c-0.1,0.1-0.2,0.3-0.2,0.5v21.4c0,0.2,0.1,0.3,0.2,0.5l1.3,1.5c0.1,0.1,0.3,0.2,0.5,0.2 c0.2,0,0.4-0.1,0.5-0.2l1.3-1.5c0.1-0.1,0.2-0.3,0.2-0.5L44,26c0-0.2-0.1-0.3-0.2-0.4l-1.3-1.5c-0.1-0.2-0.3-0.2-0.5-0.2 C41.9,23.9,41.7,23.9,41.6,24.1"/><path d="M36.8,28c-0.1,0-0.3,0.1-0.3,0.2l-1.3,1.5c-0.1,0.1-0.1,0.2-0.1,0.3v17.4c0,0.1,0,0.2,0.1,0.3l1.3,1.6 c0.1,0.1,0.2,0.2,0.4,0.2c0.1,0,0.3-0.1,0.3-0.2l1.2-1.6c0.1-0.1,0.1-0.2,0.1-0.3V30c0-0.1,0-0.2-0.1-0.3l-1.3-1.5 C37,28.1,36.9,28,36.8,28"/><path d="M31.8,32.9c-0.1,0-0.2,0-0.3,0.1l-1.3,1.3c-0.1,0.1-0.1,0.1-0.1,0.2V43c0,0.1,0,0.2,0.1,0.2l1.3,1.3 c0.1,0.1,0.2,0.1,0.3,0.1c0.1,0,0.2,0,0.3-0.1l1.2-1.3c0.1-0.1,0.1-0.2,0.1-0.2v-8.5c0-0.1,0-0.2-0.1-0.2L32.1,33 C32,32.9,31.9,32.9,31.8,32.9"/><path d="M53.5,23.9c-0.2,0-0.4,0.1-0.5,0.2l-1.3,1.5c-0.1,0.1-0.2,0.3-0.2,0.4l0,21.3c0,0.2,0.1,0.3,0.2,0.5l1.3,1.5 c0.1,0.1,0.3,0.2,0.5,0.2c0.2,0,0.4-0.1,0.5-0.2l1.3-1.5c0.1-0.1,0.2-0.3,0.2-0.5V26c0-0.2-0.1-0.3-0.2-0.5L54,24.1 C53.8,23.9,53.7,23.9,53.5,23.9"/><path d="M58.4,28.2l-1.3,1.5C57.1,29.8,57,29.9,57,30v17.5c0,0.1,0,0.2,0.1,0.3l1.2,1.6c0.1,0.1,0.2,0.2,0.3,0.2 c0.1,0,0.3-0.1,0.3-0.2l1.3-1.6c0.1-0.1,0.1-0.2,0.1-0.3V30.1c0-0.1,0-0.2-0.1-0.3l-1.3-1.5C59,28.1,58.9,28,58.8,28 C58.6,28,58.5,28.1,58.4,28.2"/><path d="M63.5,33l-1.3,1.3c-0.1,0.1-0.1,0.1-0.1,0.2V43c0,0.1,0,0.2,0.1,0.2l1.2,1.3c0.1,0.1,0.2,0.1,0.3,0.1 c0.1,0,0.2,0,0.3-0.1l1.3-1.3c0.1-0.1,0.1-0.2,0.1-0.2v-8.5c0-0.1,0-0.2-0.1-0.2L64.1,33c-0.1-0.1-0.2-0.1-0.3-0.1 C63.6,32.9,63.5,32.9,63.5,33"/><path d="M54.9,61.6c6,0.5,13-2.9,16.1-6.1c5.2-5.3,7.5-11.6,7.5-19.8c0-15.8-11-26.2-28.1-26.2 c-11.5,0-21.6,4.9-28.6,13.6c-4.9,6-7.5,13.4-7.5,21.3c0,10,4.1,18.1,11.5,23.7c5.5,4.2,13.4,7.1,22.9,6.7 c6.2-0.2,12.5-1.9,15.8-4.4c2.7-2.1,1.5-2,0.6-1.9c-0.6,0.1-1.4,0.4-1.4,0.4c-4.8,2.1-9.7,3.4-14.9,3.4 c-17.2,0-28.5-10.3-28.5-27.3c0-11.6,4.7-21.3,13.2-27.4c5.2-3.8,11.3-5.7,17.9-5.7c14.6,0,24.9,9.4,24.8,23.3 c-0.1,8.6-1.6,13.4-6.2,18.6c-4.2,4.8-10.7,6-14.6,5.6c-4.8-0.5-5.3-3.3-5.4-5.7v-0.3l0-31.1c0-0.3-0.1-0.5-0.2-0.8l-1.1-1.7 c-0.2-0.4-0.6-0.6-0.9-0.6c-0.4,0-0.7,0.2-0.9,0.6l-1,1.7c-0.1,0.2-0.2,0.5-0.2,0.7l0,30.8V54c0,0,0,0,0,0c0,0,0,0,0,0 C45.6,57.9,49.6,61.2,54.9,61.6"/></g></svg>
